<?xml version="1.0" encoding="UTF-8"?>
<svg version="1.1" xmlns="http://www.w3.org/2000/svg" width="192" height="192">
<path d="M0 0 C15.7507887 13.85305909 25.54209244 30.08539331 30.91943359 50.27246094 C31.18369141 51.19671875 31.44794922 52.12097656 31.72021484 53.07324219 C37.13982173 76.1895246 31.60111059 102.17062516 19.54443359 122.27246094 C6.05407111 143.46677006 -14.07753058 156.87863917 -38.08056641 163.27246094 C-39.00482422 163.53671875 -39.92908203 163.80097656 -40.88134766 164.07324219 C-63.99763007 169.49284907 -89.97873063 163.95413793 -110.08056641 151.89746094 C-131.89227319 138.01411946 -145.95842339 116.74863304 -151.65625 91.74633789 C-155.45232472 72.95118012 -154.2375018 54.03292585 -147.08056641 36.27246094 C-146.69771484 35.29664063 -146.31486328 34.32082031 -145.92041016 33.31542969 C-136.30208717 11.97585288 -117.03014377 -6.23283579 -95.31884766 -14.66894531 C-90.96219636 -16.23846151 -86.55355412 -17.53604452 -82.08056641 -18.72753906 C-80.69417969 -19.12392578 -80.69417969 -19.12392578 -79.27978516 -19.52832031 C-52.16715228 -25.8848706 -21.20787127 -17.60935192 0 0 Z " fill="#000000" transform="translate(156.08056640625,23.7275390625)"/>
<path d="M0 0 C1.72354161 0.04431113 3.44718288 0.08489636 5.17089844 0.12182617 C9.33256218 0.22128611 13.49028754 0.37183184 17.64959717 0.54180908 C20.52751662 0.65250142 23.40580294 0.71632246 26.28515625 0.77734375 C84.13550355 2.30462605 84.13550355 2.30462605 98.8125 13.625 C101.31599756 16.37941759 102.24338453 18.21299188 102.25 21.9375 C102.26933594 22.65550781 102.28867188 23.37351562 102.30859375 24.11328125 C99.60211864 37.8161434 84.46677964 51.48537568 74.77661133 60.51318359 C65.97557559 68.8816523 59.91117776 79.1449051 59.4375 91.5 C60.00430662 105.96490491 66.48083574 115.1553279 75.8125 125.625 C67.86995554 125.1514537 60.33923167 124.13673862 52.625 122.1875 C51.60615723 121.930896 50.58731445 121.67429199 49.53759766 121.40991211 C20.62703327 113.74854633 -5.48987562 99.58220605 -29.1875 81.625 C-29.98800781 81.06554687 -30.78851562 80.50609375 -31.61328125 79.9296875 C-32.13277344 79.49914062 -32.65226562 79.06859375 -33.1875 78.625 C-33.1875 77.965 -33.1875 77.305 -33.1875 76.625 C-33.72890625 76.398125 -34.2703125 76.17125 -34.828125 75.9375 C-37.91335943 74.22121065 -40.3854084 72.02972673 -42.9375 69.625 C-43.44410156 69.19316406 -43.95070313 68.76132813 -44.47265625 68.31640625 C-47.57021257 65.36913568 -48.55363856 63.17487654 -48.68359375 58.875 C-48.38587623 53.55392169 -47.12525825 48.6801609 -45.5 43.625 C-45.22381836 42.74634277 -44.94763672 41.86768555 -44.66308594 40.96240234 C-41.73950563 31.89323367 -37.85585961 24.36618344 -32.4375 16.5625 C-31.86467285 15.73129639 -31.86467285 15.73129639 -31.28027344 14.88330078 C-29.97750484 13.07519343 -28.58815799 11.35831706 -27.1875 9.625 C-26.62828857 8.82803711 -26.06907715 8.03107422 -25.49291992 7.20996094 C-18.50404793 -1.46823736 -10.18136222 -0.45092825 0 0 Z " fill="#FDB700" transform="translate(51.1875,26.375)"/>
<path d="M0 0 C2.475 0.495 2.475 0.495 5 1 C5.05994141 1.99580078 5.05994141 1.99580078 5.12109375 3.01171875 C5.72207228 8.5818575 5.72207228 8.5818575 9.13671875 12.77734375 C11.38883596 13.99709326 13.61551342 15.06779331 16 16 C15.690625 16.70125 15.38125 17.4025 15.0625 18.125 C13.96697322 21.08936657 13.43577008 23.87698108 13 27 C10.55853792 26.05054252 8.19182705 25.1015555 5.875 23.875 C3.89176146 22.78855727 3.89176146 22.78855727 1 23 C-2.17696345 30.8489683 -2.17696345 30.8489683 -1 39 C1.16633497 40.9865206 3.44410145 42.67454651 5.83203125 44.38671875 C9.91198058 47.42278915 10.81482345 49.87042303 11.625 54.8125 C11.40899842 59.38309343 9.37430363 62.05142253 6.21875 65.23828125 C-1.29811725 71.20677972 -9.42726331 71.15772665 -18.56640625 71.2824707 C-22.42711634 71.4508442 -24.49133431 71.65560595 -27.7578125 73.8671875 C-29.82978924 76.04814464 -29.82978924 76.04814464 -31.39453125 78.3828125 C-31.92433594 78.91648437 -32.45414063 79.45015625 -33 80 C-35.69921875 79.7421875 -35.69921875 79.7421875 -38 79 C-37.38722388 76.03824877 -36.74627478 74.61941217 -35 72 C-35 71.01 -35 70.02 -35 69 C-38.96 67.02 -42.92 65.04 -47 63 C-45.68 60.03 -44.36 57.06 -43 54 C-39.91662187 54.44048259 -37.16323043 54.9369337 -34.25 56.0625 C-29.80455436 57.34484009 -25.59428438 57.16343304 -21 57 C-18.15628995 50.6920914 -18.15628995 50.6920914 -17 44 C-17.845625 43.79375 -18.69125 43.5875 -19.5625 43.375 C-25.24577427 41.10169029 -28.8888668 37.93552235 -31.9375 32.625 C-33.68440218 26.66498079 -34.03854837 22.30898133 -31.125 16.8125 C-27.73324676 12.02635931 -23.57801311 9.64479874 -18 8 C-13.02772498 7.22513278 -8.02682872 7.07372682 -3 7 C-2.01 4.69 -1.02 2.38 0 0 Z " fill="#050300" transform="translate(73,33)"/>
<path d="M0 0 C2 2 2 2 2.046875 4.0234375 C1.94890625 4.79945312 1.8509375 5.57546875 1.75 6.375 C1.61851563 7.53128906 1.61851563 7.53128906 1.484375 8.7109375 C0.97764331 11.1056534 0.25444642 12.90308404 -1 15 C-2.6875 15.9375 -2.6875 15.9375 -5 16 C-8.5747262 14.70570258 -11.29730077 13.70269923 -14 11 C-14.5 7.625 -14.5 7.625 -14 4 C-9.55288333 -0.33593875 -5.88389987 -0.58838999 0 0 Z " fill="#F4B000" transform="translate(65,51)"/>
<path d="M0 0 C4.05606165 0.46800711 7.46588679 0.87953208 11 3 C11.3125 5.3125 11.3125 5.3125 11 8 C8.02783994 10.69352006 5.56946196 11.17370973 1.6875 11.1875 C-0.1378125 11.0946875 -0.1378125 11.0946875 -2 11 C-3.25 9.4375 -3.25 9.4375 -4 7 C-2.93237266 4.42998985 -1.53455057 2.3469597 0 0 Z " fill="#F3AF00" transform="translate(62,82)"/>
<path d="M0 0 C3.34861059 1.38563197 5.29014301 2.76027096 7 6 C6.57446809 11.42553191 6.57446809 11.42553191 5 13 C3.00041636 13.04080783 0.99954746 13.04254356 -1 13 C-1.22245393 11.39773045 -1.42746669 9.79303233 -1.625 8.1875 C-1.74101563 7.29417969 -1.85703125 6.40085937 -1.9765625 5.48046875 C-2 3 -2 3 0 0 Z " fill="#040300" transform="translate(91,52)"/>
<path d="M0 0 C0.763125 0.20625 1.52625 0.4125 2.3125 0.625 C1.6525 3.595 0.9925 6.565 0.3125 9.625 C-1.0075 9.955 -2.3275 10.285 -3.6875 10.625 C-5.25 8.9375 -5.25 8.9375 -6.6875 6.625 C-6.5625 4 -6.5625 4 -5.6875 1.625 C-2.6875 -0.375 -2.6875 -0.375 0 0 Z " fill="#0D0900" transform="translate(24.6875,83.375)"/>
</svg>
